<?xml version="1.0" standalone="no"?>
<!DOCTYPE svg PUBLIC "-//W3C//DTD SVG 20010904//EN"
 "http://www.w3.org/TR/2001/REC-SVG-20010904/DTD/svg10.dtd">
<svg version="1.0" xmlns="http://www.w3.org/2000/svg"
 width="1028.000000pt" height="1028.000000pt" viewBox="0 0 1028.000000 1028.000000"
 preserveAspectRatio="xMidYMid meet">
<metadata>
Created by potrace 1.14, written by Peter Selinger 2001-2017
</metadata>
<g transform="translate(0.000000,1028.000000) scale(0.100000,-0.100000)"
fill="#000000" stroke="none">
<path d="M2320 9632 c-19 -2 -82 -25 -138 -52 l-104 -48 -96 47 -97 46 -128 3
c-99 3 -139 0 -180 -13 -114 -37 -207 -120 -260 -233 l-32 -67 0 -4175 0
-4175 32 -68 c69 -145 188 -229 353 -249 130 -15 186 -5 297 53 51 27 101 49
110 49 9 0 60 -22 113 -49 l96 -50 3270 -3 3269 -3 42 23 c44 23 85 69 102
116 16 39 15 8644 0 8699 -6 21 -26 56 -45 77 -69 77 248 70 -3344 73 -1774 1
-3241 1 -3260 -1z m3534 -1367 c33 -9 80 -31 105 -50 83 -61 2057 -2047 2075
-2087 9 -20 21 -61 27 -91 14 -67 -8 -163 -48 -216 -36 -47 -2007 -2018 -2054
-2054 -53 -40 -149 -62 -216 -48 -30 6 -71 18 -91 27 -41 19 -2042 2008 -2093
2081 -43 62 -64 153 -50 220 6 30 18 71 28 91 11 23 283 303 719 739 l701 701
260 -261 260 -262 -14 -45 c-21 -65 -12 -164 20 -234 28 -62 109 -146 158
-167 l29 -11 0 -627 0 -626 -45 -24 c-58 -31 -110 -89 -144 -160 -22 -47 -26
-70 -26 -141 0 -72 4 -93 28 -142 34 -69 94 -131 162 -166 44 -23 62 -27 145
-27 82 0 103 4 152 27 69 32 124 88 163 164 26 52 30 70 30 144 0 76 -4 93
-33 152 -29 60 -71 108 -129 148 l-22 15 -7 618 c-4 418 -3 617 4 617 5 0 115
-105 242 -232 l233 -233 -12 -42 c-37 -142 20 -295 140 -375 72 -47 121 -62
200 -61 127 2 247 80 305 199 25 51 29 71 29 144 0 71 -4 94 -26 141 -69 146
-214 222 -376 197 l-57 -9 -253 253 -253 253 11 40 c16 58 6 154 -24 218 -34
74 -88 131 -155 164 -52 25 -67 28 -170 29 l-113 0 -255 255 c-140 139 -254
258 -254 262 0 11 405 414 451 449 33 26 120 56 164 57 12 1 47 -6 79 -14z
m2891 -6217 c-61 -242 -70 -309 -70 -548 1 -240 7 -289 63 -521 l29 -117 -321
-7 c-177 -3 -1631 -5 -3233 -3 l-2912 3 -101 53 c-55 28 -110 52 -121 52 -12
0 -59 -20 -107 -45 -47 -25 -94 -45 -104 -45 -29 0 -104 76 -127 129 -33 79
-41 166 -41 501 0 346 8 429 45 507 28 56 95 123 123 123 9 0 55 -21 101 -45
45 -25 95 -45 110 -45 14 0 51 14 81 31 30 18 75 40 100 50 43 17 170 18 3276
19 l3232 0 -23 -92z"/>
</g>
</svg>
